<?xml version="1.0" encoding="UTF-8"?>
<svg version="1.1" viewBox="0 0 50 50" xml:space="preserve" xmlns="http://www.w3.org/2000/svg">
<desc>Created with Fabric.js 3.5.0</desc>

<rect width="100%" height="100%" fill="#fff"/>
<g transform="matrix(.3089 0 0 .3165 24.396 24.996)" clip-path="url(#a)">
<clipPath id="a">
	<rect transform="translate(1e-4)" x="-79" y="-79" width="158" height="158" rx="0" ry="0"/>
</clipPath>
<path transform="translate(-79 -79)" d="m106.12-7.6585e-5h-54.249-0.1357c-28.613 0.037508-51.777 23.263-51.74 51.875v54.249 0.136c0.037508 28.613 23.263 51.777 51.876 51.74h54.249 0.136c28.613-0.038 51.777-23.263 51.74-51.876v-54.249-0.1357c-0.038-28.613-23.263-51.777-51.876-51.74z" fill="#6c757d" stroke-linecap="round" vector-effect="non-scaling-stroke" style="font-file-url:none;is-custom-font:none"/>
</g>
<g transform="matrix(-1.6307 0 0 1.6307 21.934 25.735)">
<g vector-effect="non-scaling-stroke" style="">
		<g transform="translate(-.5)">
<path transform="translate(-7.5 -8.0001)" d="m14.763 0.075a0.5 0.5 0 0 1 0.237 0.425v15a0.5 0.5 0 0 1-0.5 0.5h-3a0.5 0.5 0 0 1-0.5-0.5v-1.5h-1v1.5a0.5 0.5 0 0 1-0.5 0.5h-9a0.5 0.5 0 0 1-0.5-0.5v-5.5a0.5 0.5 0 0 1 0.342-0.474l5.658-1.886v-3.14a0.5 0.5 0 0 1 0.276-0.447l8-4a0.5 0.5 0 0 1 0.487 0.022zm-8.763 8.619-5 1.666v4.64h5v-6.306zm1 6.306h2v-1.5a0.5 0.5 0 0 1 0.5-0.5h2a0.5 0.5 0 0 1 0.5 0.5v1.5h2v-13.691l-7 3.5v10.191z" fill="#fff" fill-rule="evenodd" stroke-linecap="round" style="font-file-url:none;is-custom-font:none"/>
</g>
		<g transform="translate(-.5 .5)">
<path transform="translate(-7.5 -8.5)" d="m2 11h1v1h-1v-1zm2 0h1v1h-1v-1zm-2 2h1v1h-1v-1zm2 0h1v1h-1v-1zm4-4h1v1h-1v-1zm2 0h1v1h-1v-1zm-2 2h1v1h-1v-1zm2 0h1v1h-1v-1zm2-2h1v1h-1v-1zm0 2h1v1h-1v-1zm-4-4h1v1h-1v-1zm2 0h1v1h-1v-1zm2 0h1v1h-1v-1zm-4-2h1v1h-1v-1zm2 0h1v1h-1v-1zm2 0h1v1h-1v-1zm0-2h1v1h-1v-1z" fill="#fff" stroke-linecap="round" style="font-file-url:none;is-custom-font:none"/>
</g>
</g>
</g>
<g transform="matrix(.5074 .3917 -.3917 .5074 32.321 18.009)">
<g vector-effect="non-scaling-stroke" style="">
		<g id="Icons" transform="translate(0 8)">
<circle r="2" fill="#fff" style="font-file-url:none;is-custom-font:none"/>
</g>
		<g id="b" transform="translate(-.0095 .8028)">
<path transform="translate(-11.99 -12.803)" d="m17.1 15.59a1.984 1.984 0 0 1-1.133-0.354 7.088 7.088 0 0 0-7.93 0 2 2 0 1 1-2.27-3.293 10.975 10.975 0 0 1 12.47 0 2 2 0 0 1-1.137 3.647z" fill="#fff" stroke-linecap="round" style="font-file-url:none;is-custom-font:none"/>
</g>
		<g transform="translate(0 -6.7072)">
<path transform="translate(-12 -5.2927)" d="m21 8.581a1.992 1.992 0 0 1-1.058-0.3 14.988 14.988 0 0 0-15.88 0 2 2 0 0 1-2.122-3.397 18.988 18.988 0 0 1 20.12 0 2 2 0 0 1-1.06 3.697z" fill="#fff" stroke-linecap="round" style="font-file-url:none;is-custom-font:none"/>
</g>
</g>
</g>
</svg>
