<svg xmlns="http://www.w3.org/2000/svg" xmlns:xlink="http://www.w3.org/1999/xlink" version="1.1" width="50" height="50" viewBox="0 0 50 50" xml:space="preserve">
<desc>Created with Fabric.js 3.5.0</desc>
<defs>
</defs>
<rect x="0" y="0" width="100%" height="100%" fill="#ffffff"/>
<g transform="matrix(0.3089 0 0 0.3165 24.396 24.9964)" id="971748" clip-path="url(#CLIPPATH_5)">
<clipPath id="CLIPPATH_5">
	<rect transform="matrix(1 0 0 1 0.0001 0)" id="clip0_302_96" x="-79" y="-79" rx="0" ry="0" width="158" height="158"/>
</clipPath>
<path style="stroke: none; stroke-width: 0; stroke-dasharray: none; stroke-linecap: butt; stroke-dashoffset: 0; stroke-linejoin: miter; stroke-miterlimit: 4; is-custom-font: none; font-file-url: none; fill: rgb(0,0,0); fill-rule: nonzero; opacity: 1;" vector-effect="non-scaling-stroke" transform=" translate(-78.9999, -79)" d="M 106.124 -0.0000765851 H 51.8754 C 51.8303 -0.0000765851 51.7848 -0.0000765851 51.7397 -0.0000765851 C 23.1271 0.0374314 -0.0376151 23.2628 -0.000107103 51.8754 V 106.124 C -0.000107103 106.17 -0.000107103 106.215 -0.000107103 106.26 C 0.0374009 134.873 23.2628 158.037 51.8754 158 H 106.124 C 106.17 158 106.215 158 106.26 158 C 134.873 157.962 158.037 134.737 158 106.124 V 51.8754 C 158 51.8303 158 51.7848 158 51.7397 C 157.962 23.1271 134.737 -0.0375846 106.124 -0.0000765851 Z" stroke-linecap="round"/>
</g>
<g transform="matrix(-1.6307 0 0 1.6307 21.9343 25.7349)" id="649514">
<g style="" vector-effect="non-scaling-stroke">
		<g transform="matrix(1 0 0 1 -0.5 0)">
<path style="stroke: none; stroke-width: 1; stroke-dasharray: none; stroke-linecap: butt; stroke-dashoffset: 0; stroke-linejoin: miter; stroke-miterlimit: 4; is-custom-font: none; font-file-url: none; fill: rgb(255,255,255); fill-rule: evenodd; opacity: 1;" transform=" translate(-7.5, -8.0001)" d="M 14.763 0.075 A 0.5 0.5 0 0 1 15 0.5 v 15 a 0.5 0.5 0 0 1 -0.5 0.5 h -3 a 0.5 0.5 0 0 1 -0.5 -0.5 V 14 h -1 v 1.5 a 0.5 0.5 0 0 1 -0.5 0.5 h -9 a 0.5 0.5 0 0 1 -0.5 -0.5 V 10 a 0.5 0.5 0 0 1 0.342 -0.474 L 6 7.64 V 4.5 a 0.5 0.5 0 0 1 0.276 -0.447 l 8 -4 a 0.5 0.5 0 0 1 0.487 0.022 z M 6 8.694 L 1 10.36 V 15 h 5 V 8.694 z M 7 15 h 2 v -1.5 a 0.5 0.5 0 0 1 0.5 -0.5 h 2 a 0.5 0.5 0 0 1 0.5 0.5 V 15 h 2 V 1.309 l -7 3.5 V 15 z" stroke-linecap="round"/>
</g>
		<g transform="matrix(1 0 0 1 -0.5 0.5)">
<path style="stroke: none; stroke-width: 1; stroke-dasharray: none; stroke-linecap: butt; stroke-dashoffset: 0; stroke-linejoin: miter; stroke-miterlimit: 4; is-custom-font: none; font-file-url: none; fill: rgb(255,255,255); fill-rule: nonzero; opacity: 1;" transform=" translate(-7.5, -8.5)" d="M 2 11 h 1 v 1 H 2 v -1 z m 2 0 h 1 v 1 H 4 v -1 z m -2 2 h 1 v 1 H 2 v -1 z m 2 0 h 1 v 1 H 4 v -1 z m 4 -4 h 1 v 1 H 8 V 9 z m 2 0 h 1 v 1 h -1 V 9 z m -2 2 h 1 v 1 H 8 v -1 z m 2 0 h 1 v 1 h -1 v -1 z m 2 -2 h 1 v 1 h -1 V 9 z m 0 2 h 1 v 1 h -1 v -1 z M 8 7 h 1 v 1 H 8 V 7 z m 2 0 h 1 v 1 h -1 V 7 z m 2 0 h 1 v 1 h -1 V 7 z M 8 5 h 1 v 1 H 8 V 5 z m 2 0 h 1 v 1 h -1 V 5 z m 2 0 h 1 v 1 h -1 V 5 z m 0 -2 h 1 v 1 h -1 V 3 z" stroke-linecap="round"/>
</g>
</g>
</g>
<g transform="matrix(0.5074 0.3917 -0.3917 0.5074 32.3212 18.0088)" id="864295">
<g style="" vector-effect="non-scaling-stroke">
		<g transform="matrix(1 0 0 1 0 8)" id="Icons">
<circle style="stroke: none; stroke-width: 1; stroke-dasharray: none; stroke-linecap: butt; stroke-dashoffset: 0; stroke-linejoin: miter; stroke-miterlimit: 4; is-custom-font: none; font-file-url: none; fill: rgb(255,255,255); fill-rule: nonzero; opacity: 1;" cx="0" cy="0" r="2"/>
</g>
		<g transform="matrix(1 0 0 1 -0.0095 0.8028)" id="Icons">
<path style="stroke: none; stroke-width: 1; stroke-dasharray: none; stroke-linecap: butt; stroke-dashoffset: 0; stroke-linejoin: miter; stroke-miterlimit: 4; is-custom-font: none; font-file-url: none; fill: rgb(255,255,255); fill-rule: nonzero; opacity: 1;" transform=" translate(-11.9905, -12.8028)" d="M 17.1 15.59 a 1.984 1.984 0 0 1 -1.133 -0.354 a 7.088 7.088 0 0 0 -7.93 0 a 2 2 0 1 1 -2.27 -3.293 a 10.975 10.975 0 0 1 12.47 0 A 2 2 0 0 1 17.1 15.59 Z" stroke-linecap="round"/>
</g>
		<g transform="matrix(1 0 0 1 0 -6.7072)" id="Icons">
<path style="stroke: none; stroke-width: 1; stroke-dasharray: none; stroke-linecap: butt; stroke-dashoffset: 0; stroke-linejoin: miter; stroke-miterlimit: 4; is-custom-font: none; font-file-url: none; fill: rgb(255,255,255); fill-rule: nonzero; opacity: 1;" transform=" translate(-11.9999, -5.2927)" d="M 21 8.581 a 1.992 1.992 0 0 1 -1.058 -0.3 a 14.988 14.988 0 0 0 -15.88 0 A 2 2 0 0 1 1.94 4.884 a 18.988 18.988 0 0 1 20.12 0 A 2 2 0 0 1 21 8.581 Z" stroke-linecap="round"/>
</g>
</g>
</g>
</svg>